<svg id="b6a00ee3-80ad-4000-b6e3-4ddbf315a0a2" data-name="Layer 1" xmlns="http://www.w3.org/2000/svg" width="6.82in" height="1.98in" viewBox="0 0 491.1 142.87"><polyline points="167.64 33.79 227.02 33.52 265.71 71.66 323.79 71.55" fill="none" stroke="#393d4f" stroke-miterlimit="8" stroke-width="1.5"/><polyline points="167.98 71.53 227.33 71.79 266 33.39 322.45 33.66" fill="none" stroke="#393d4f" stroke-miterlimit="8" stroke-width="1.5"/><rect x="39.7" y="0.75" width="103.09" height="141.37" rx="3.41" fill="#8fd0b8" stroke="#393d4f" stroke-miterlimit="10" stroke-width="1.5"/><rect x="39.7" y="0.75" width="103.09" height="141.37" rx="3.41" fill="none" stroke="#393d4f" stroke-miterlimit="8" stroke-width="1.5"/><polygon points="136.75 21.57 147.79 21.57 147.79 26.6 181.41 30.13 181.41 37.19 147.79 40.72 147.79 45.75 136.75 45.75 136.75 21.57" fill="#a1dbf7" stroke="#393d4f" stroke-miterlimit="10" stroke-width="1.5" fill-rule="evenodd"/><polygon points="136.75 21.57 147.79 21.57 147.79 26.6 181.41 30.13 181.41 37.19 147.79 40.72 147.79 45.75 136.75 45.75 136.75 21.57" fill="none" stroke="#393d4f" stroke-miterlimit="8" stroke-width="1.5"/><polygon points="136.75 59.52 147.79 59.52 147.79 64.55 181.41 68.08 181.41 75.13 147.79 78.66 147.79 83.69 136.75 83.69 136.75 59.52" fill="#a1dbf7" stroke="#393d4f" stroke-miterlimit="10" stroke-width="1.5" fill-rule="evenodd"/><polygon points="136.75 59.52 147.79 59.52 147.79 64.55 181.41 68.08 181.41 75.13 147.79 78.66 147.79 83.69 136.75 83.69 136.75 59.52" fill="none" stroke="#393d4f" stroke-miterlimit="8" stroke-width="1.5"/><polygon points="136.75 97.13 147.79 97.13 147.79 102.16 181.41 105.69 181.41 112.74 147.79 116.27 147.79 121.3 136.75 121.3 136.75 97.13" fill="#a1dbf7" stroke="#393d4f" stroke-miterlimit="10" stroke-width="1.5" fill-rule="evenodd"/><polygon points="136.75 97.13 147.79 97.13 147.79 102.16 181.41 105.69 181.41 112.74 147.79 116.27 147.79 121.3 136.75 121.3 136.75 97.13" fill="none" stroke="#393d4f" stroke-miterlimit="8" stroke-width="1.5"/><path d="M121,37.75l-1.5-3.32a.06.06,0,0,0-.07,0h-1.12a.05.05,0,0,0-.06.06v3.27a.15.15,0,0,1,0,.11.18.18,0,0,1-.1,0h-1.4a.14.14,0,0,1-.15-.15V29.6a.18.18,0,0,1,0-.1.15.15,0,0,1,.11,0h3.43a2.8,2.8,0,0,1,1.35.31,2.15,2.15,0,0,1,.9.89,2.73,2.73,0,0,1,.32,1.33,2.41,2.41,0,0,1-.41,1.4,2.14,2.14,0,0,1-1.14.82s0,0,0,.08l1.63,3.4a.17.17,0,0,1,0,.07c0,.07-.05.1-.13.1h-1.48A.18.18,0,0,1,121,37.75ZM118.23,31V33a.05.05,0,0,0,.06.06h1.58a1.15,1.15,0,0,0,.82-.3,1.11,1.11,0,0,0,0-1.56,1.12,1.12,0,0,0-.82-.31h-1.58A.05.05,0,0,0,118.23,31Z" fill="#393d4f"/><path d="M123.55,37.81a.11.11,0,0,1,0-.12l2.33-4s0,0,0-.07l-2.33-4,0-.08c0-.06,0-.09.13-.09h1.52a.2.2,0,0,1,.18.09l1.56,2.75c0,.05,0,.05.08,0l1.56-2.75a.2.2,0,0,1,.18-.09h1.51a.13.13,0,0,1,.12.05.11.11,0,0,1,0,.12l-2.33,4a.08.08,0,0,0,0,.07l2.33,4,0,.07c0,.07,0,.1-.13.1h-1.51a.19.19,0,0,1-.18-.1L127,35c0-.05-.05-.05-.08,0l-1.57,2.73a.19.19,0,0,1-.18.1h-1.51A.14.14,0,0,1,123.55,37.81Z" fill="#393d4f"/><path d="M76.91,15.77a2.62,2.62,0,0,1-1.09-1,2.87,2.87,0,0,1-.39-1.5V7.77a.14.14,0,0,1,.14-.14H77a.14.14,0,0,1,.1,0,.18.18,0,0,1,0,.1v5.49a1.42,1.42,0,1,0,2.83,0V7.77a.14.14,0,0,1,.14-.14H81.5a.14.14,0,0,1,.14.14v5.48a2.87,2.87,0,0,1-.39,1.5,2.62,2.62,0,0,1-1.09,1,3.85,3.85,0,0,1-3.25,0Z" fill="#393d4f"/><path d="M87.91,15.91l-.36-1.18a.07.07,0,0,0-.06,0h-3a.07.07,0,0,0-.06,0l-.34,1.18A.16.16,0,0,1,84,16H82.45a.12.12,0,0,1-.11,0s0-.07,0-.13l2.59-8.11a.14.14,0,0,1,.15-.12H87a.14.14,0,0,1,.15.12l2.6,8.11s0,0,0,.06,0,.11-.13.11H88.06A.14.14,0,0,1,87.91,15.91Zm-3-2.53h2.12s.06,0,0-.07L86,9.74s0,0,0,0,0,0,0,0l-1,3.57S84.91,13.38,85,13.38Z" fill="#393d4f"/><path d="M94.9,15.92,93.4,12.6a.08.08,0,0,0-.07,0H92.21a.05.05,0,0,0-.06.06v3.28A.14.14,0,0,1,92,16h-1.4a.15.15,0,0,1-.11,0,.18.18,0,0,1,0-.1V7.77a.18.18,0,0,1,0-.1.15.15,0,0,1,.11,0H94a2.8,2.8,0,0,1,1.35.31,2.2,2.2,0,0,1,.9.89,2.73,2.73,0,0,1,.32,1.33,2.39,2.39,0,0,1-.41,1.4,2.14,2.14,0,0,1-1.14.82.07.07,0,0,0,0,.09l1.63,3.39a.17.17,0,0,1,0,.07c0,.07-.05.1-.13.1H95.07A.18.18,0,0,1,94.9,15.92ZM92.15,9.14v2a.05.05,0,0,0,.06.06h1.58a1.15,1.15,0,0,0,.82-.3,1.11,1.11,0,0,0,0-1.56,1.12,1.12,0,0,0-.82-.31H92.21A.05.05,0,0,0,92.15,9.14Z" fill="#393d4f"/><path d="M103.42,7.67a.18.18,0,0,1,0,.1V9a.18.18,0,0,1,0,.1.15.15,0,0,1-.11,0h-2.14a.05.05,0,0,0-.06.06v6.74a.14.14,0,0,1,0,.1.12.12,0,0,1-.1,0h-1.4a.12.12,0,0,1-.1,0,.14.14,0,0,1,0-.1V9.15a.05.05,0,0,0-.06-.06H97.27a.15.15,0,0,1-.11,0,.18.18,0,0,1,0-.1V7.77a.18.18,0,0,1,0-.1.15.15,0,0,1,.11,0h6A.15.15,0,0,1,103.42,7.67Z" fill="#393d4f"/><path d="M105.47,7.63h1.46a.14.14,0,0,1,.14.14v8.12a.14.14,0,0,1-.14.14h-1.41a.14.14,0,0,1-.14-.14V9.31s0,0,0-.05,0,0,0,0l-1.19.32-.05,0c-.07,0-.11-.05-.11-.14l0-1a.18.18,0,0,1,.1-.17l1.26-.58A.3.3,0,0,1,105.47,7.63Z" fill="#393d4f"/><path d="M122.79,67.11a.13.13,0,0,1,0,.1v1.18a.14.14,0,0,1-.14.14h-2.15a.05.05,0,0,0-.06.06v6.73a.15.15,0,0,1,0,.1.16.16,0,0,1-.11,0h-1.4a.14.14,0,0,1-.1,0,.12.12,0,0,1,0-.1V68.59a.05.05,0,0,0-.06-.06h-2.09a.12.12,0,0,1-.1,0,.14.14,0,0,1-.05-.1V67.21a.14.14,0,0,1,.05-.1.12.12,0,0,1,.1,0h6A.13.13,0,0,1,122.79,67.11Z" fill="#393d4f"/><path d="M123.55,75.42a.11.11,0,0,1,0-.12l2.33-4s0,0,0-.07l-2.33-4,0-.07c0-.06,0-.09.13-.09h1.52a.2.2,0,0,1,.18.09l1.56,2.75s0,0,.08,0l1.56-2.75a.2.2,0,0,1,.18-.09h1.51a.13.13,0,0,1,.12.05.09.09,0,0,1,0,.11l-2.33,4a.08.08,0,0,0,0,.07l2.33,4,0,.07c0,.06,0,.1-.13.1h-1.51a.21.21,0,0,1-.18-.1L127,72.63s-.05,0-.08,0l-1.57,2.74a.21.21,0,0,1-.18.1h-1.51A.14.14,0,0,1,123.55,75.42Z" fill="#393d4f"/><rect x="348.31" y="0.75" width="103.09" height="141.37" rx="3.41" fill="#8fd0b8" stroke="#393d4f" stroke-miterlimit="10" stroke-width="1.5"/><rect x="348.31" y="0.75" width="103.09" height="141.37" rx="3.41" fill="none" stroke="#393d4f" stroke-miterlimit="8" stroke-width="1.5"/><polygon points="445.35 21.57 456.48 21.57 456.48 26.6 490.35 30.13 490.35 37.19 456.48 40.72 456.48 45.75 445.35 45.75 445.35 21.57" fill="#a1dbf7" stroke="#393d4f" stroke-miterlimit="10" stroke-width="1.5" fill-rule="evenodd"/><polygon points="445.35 21.57 456.48 21.57 456.48 26.6 490.35 30.13 490.35 37.19 456.48 40.72 456.48 45.75 445.35 45.75 445.35 21.57" fill="none" stroke="#393d4f" stroke-miterlimit="8" stroke-width="1.5"/><polygon points="445.35 59.52 456.48 59.52 456.48 64.55 490.35 68.08 490.35 75.13 456.48 78.66 456.48 83.69 445.35 83.69 445.35 59.52" fill="#a1dbf7" stroke="#393d4f" stroke-miterlimit="10" stroke-width="1.5" fill-rule="evenodd"/><polygon points="445.35 59.52 456.48 59.52 456.48 64.55 490.35 68.08 490.35 75.13 456.48 78.66 456.48 83.69 445.35 83.69 445.35 59.52" fill="none" stroke="#393d4f" stroke-miterlimit="8" stroke-width="1.5"/><polygon points="445.35 97.13 456.48 97.13 456.48 102.16 490.35 105.69 490.35 112.74 456.48 116.27 456.48 121.3 445.35 121.3 445.35 97.13" fill="#a1dbf7" stroke="#393d4f" stroke-miterlimit="10" stroke-width="1.5" fill-rule="evenodd"/><polygon points="445.35 97.13 456.48 97.13 456.48 102.16 490.35 105.69 490.35 112.74 456.48 116.27 456.48 121.3 445.35 121.3 445.35 97.13" fill="none" stroke="#393d4f" stroke-miterlimit="8" stroke-width="1.5"/><polygon points="354.35 21.57 343.22 21.57 343.22 26.6 309.35 30.13 309.35 37.19 343.22 40.72 343.22 45.75 354.35 45.75 354.35 21.57" fill="#a1dbf7" stroke="#393d4f" stroke-miterlimit="10" stroke-width="1.5" fill-rule="evenodd"/><polygon points="354.35 21.57 343.22 21.57 343.22 26.6 309.35 30.13 309.35 37.19 343.22 40.72 343.22 45.75 354.35 45.75 354.35 21.57" fill="none" stroke="#393d4f" stroke-miterlimit="8" stroke-width="1.5"/><polygon points="354.35 59.52 343.22 59.52 343.22 64.55 309.35 68.08 309.35 75.13 343.22 78.66 343.22 83.69 354.35 83.69 354.35 59.52" fill="#a1dbf7" stroke="#393d4f" stroke-miterlimit="10" stroke-width="1.5" fill-rule="evenodd"/><polygon points="354.35 59.52 343.22 59.52 343.22 64.55 309.35 68.08 309.35 75.13 343.22 78.66 343.22 83.69 354.35 83.69 354.35 59.52" fill="none" stroke="#393d4f" stroke-miterlimit="8" stroke-width="1.5"/><polygon points="354.35 97.13 343.22 97.13 343.22 102.16 309.35 105.69 309.35 112.74 343.22 116.27 343.22 121.3 354.35 121.3 354.35 97.13" fill="#a1dbf7" stroke="#393d4f" stroke-miterlimit="10" stroke-width="1.5" fill-rule="evenodd"/><polygon points="354.35 97.13 343.22 97.13 343.22 102.16 309.35 105.69 309.35 112.74 343.22 116.27 343.22 121.3 354.35 121.3 354.35 97.13" fill="none" stroke="#393d4f" stroke-miterlimit="8" stroke-width="1.5"/><polygon points="45.75 21.57 34.62 21.57 34.62 26.6 0.75 30.13 0.75 37.19 34.62 40.72 34.62 45.75 45.75 45.75 45.75 21.57" fill="#a1dbf7" stroke="#393d4f" stroke-miterlimit="10" stroke-width="1.5" fill-rule="evenodd"/><polygon points="45.75 21.57 34.62 21.57 34.62 26.6 0.75 30.13 0.75 37.19 34.62 40.72 34.62 45.75 45.75 45.75 45.75 21.57" fill="none" stroke="#393d4f" stroke-miterlimit="8" stroke-width="1.5"/><polygon points="45.75 59.52 34.62 59.52 34.62 64.55 0.75 68.08 0.75 75.13 34.62 78.66 34.62 83.69 45.75 83.69 45.75 59.52" fill="#a1dbf7" stroke="#393d4f" stroke-miterlimit="10" stroke-width="1.5" fill-rule="evenodd"/><polygon points="45.75 59.52 34.62 59.52 34.62 64.55 0.75 68.08 0.75 75.13 34.62 78.66 34.62 83.69 45.75 83.69 45.75 59.52" fill="none" stroke="#393d4f" stroke-miterlimit="8" stroke-width="1.5"/><polygon points="45.75 97.13 34.62 97.13 34.62 102.16 0.75 105.69 0.75 112.74 34.62 116.27 34.62 121.3 45.75 121.3 45.75 97.13" fill="#a1dbf7" stroke="#393d4f" stroke-miterlimit="10" stroke-width="1.5" fill-rule="evenodd"/><polygon points="45.75 97.13 34.62 97.13 34.62 102.16 0.75 105.69 0.75 112.74 34.62 116.27 34.62 121.3 45.75 121.3 45.75 97.13" fill="none" stroke="#393d4f" stroke-miterlimit="8" stroke-width="1.5"/><path d="M365.52,37.75,364,34.43a.06.06,0,0,0-.07,0h-1.12a.05.05,0,0,0-.06.06v3.27a.15.15,0,0,1,0,.11.18.18,0,0,1-.1,0h-1.4a.14.14,0,0,1-.15-.15V29.6a.18.18,0,0,1,0-.1.15.15,0,0,1,.11,0h3.43a2.8,2.8,0,0,1,1.35.31,2.15,2.15,0,0,1,.9.89,2.73,2.73,0,0,1,.32,1.33,2.41,2.41,0,0,1-.41,1.4,2.14,2.14,0,0,1-1.14.82s-.05,0,0,.08l1.63,3.4a.17.17,0,0,1,0,.07c0,.07-.05.1-.13.1h-1.48A.18.18,0,0,1,365.52,37.75ZM362.77,31V33a.05.05,0,0,0,.06.06h1.58a1.15,1.15,0,0,0,.82-.3,1.11,1.11,0,0,0,0-1.56,1.12,1.12,0,0,0-.82-.31h-1.58A.05.05,0,0,0,362.77,31Z" fill="#393d4f"/><path d="M368.09,37.81a.11.11,0,0,1,0-.12l2.33-4s0,0,0-.07l-2.33-4,0-.08c0-.06,0-.09.13-.09h1.52a.2.2,0,0,1,.18.09l1.56,2.75c0,.05,0,.05.08,0l1.56-2.75a.2.2,0,0,1,.18-.09h1.51a.13.13,0,0,1,.12.05.11.11,0,0,1,0,.12l-2.33,4a.08.08,0,0,0,0,.07l2.33,4,0,.07c0,.07,0,.1-.13.1h-1.51a.19.19,0,0,1-.18-.1L371.55,35c0-.05-.05-.05-.08,0l-1.57,2.73a.19.19,0,0,1-.18.1h-1.51A.14.14,0,0,1,368.09,37.81Z" fill="#393d4f"/><path d="M367,67.11a.13.13,0,0,1,0,.1v1.18a.14.14,0,0,1-.14.14h-2.15a.05.05,0,0,0-.06.06v6.73a.12.12,0,0,1,0,.1.14.14,0,0,1-.1,0h-1.41a.14.14,0,0,1-.1,0,.12.12,0,0,1,0-.1V68.59a.05.05,0,0,0-.06-.06h-2.09a.14.14,0,0,1-.14-.14V67.21a.14.14,0,0,1,.14-.14h6.05A.13.13,0,0,1,367,67.11Z" fill="#393d4f"/><path d="M367.74,75.42a.11.11,0,0,1,0-.12l2.33-4s0,0,0-.07l-2.33-4,0-.07c0-.06,0-.09.13-.09h1.53a.2.2,0,0,1,.18.09l1.56,2.75s0,0,.07,0l1.56-2.75a.2.2,0,0,1,.18-.09h1.51c.06,0,.1,0,.12.05a.09.09,0,0,1,0,.11l-2.33,4a.08.08,0,0,0,0,.07l2.33,4,0,.07c0,.06,0,.1-.13.1h-1.51a.21.21,0,0,1-.18-.1l-1.56-2.74s-.05,0-.07,0l-1.58,2.74a.21.21,0,0,1-.18.1h-1.51A.17.17,0,0,1,367.74,75.42Z" fill="#393d4f"/><path d="M384.28,15.77a2.65,2.65,0,0,1-1.1-1,2.87,2.87,0,0,1-.39-1.5V7.77a.14.14,0,0,1,0-.1.12.12,0,0,1,.1,0h1.4a.12.12,0,0,1,.1,0,.14.14,0,0,1,.05.1v5.49a1.42,1.42,0,1,0,2.83,0V7.77a.14.14,0,0,1,.14-.14h1.41a.14.14,0,0,1,.14.14v5.48a2.87,2.87,0,0,1-.39,1.5,2.62,2.62,0,0,1-1.09,1,3.53,3.53,0,0,1-1.63.36A3.48,3.48,0,0,1,384.28,15.77Z" fill="#393d4f"/><path d="M395.27,15.91l-.36-1.18a.05.05,0,0,0-.06,0h-3a.07.07,0,0,0-.06,0l-.35,1.18a.14.14,0,0,1-.15.12h-1.53a.12.12,0,0,1-.1,0s0-.07,0-.13l2.6-8.11a.14.14,0,0,1,.15-.12h1.89a.14.14,0,0,1,.15.12l2.59,8.11a.14.14,0,0,1,0,.06c0,.07,0,.11-.14.11h-1.52A.16.16,0,0,1,395.27,15.91Zm-2.95-2.53h2.11c.05,0,.07,0,.05-.07L393.4,9.74s0,0,0,0,0,0,0,0l-1.06,3.57S392.28,13.38,392.32,13.38Z" fill="#393d4f"/><path d="M402.27,15.92l-1.5-3.32s0,0-.07,0h-1.12a.05.05,0,0,0-.06.06v3.28a.14.14,0,0,1-.14.14H398a.14.14,0,0,1-.14-.14V7.77a.14.14,0,0,1,.14-.14h3.43a2.81,2.81,0,0,1,1.36.31,2.24,2.24,0,0,1,.89.89,2.62,2.62,0,0,1,.32,1.33,2.32,2.32,0,0,1-.41,1.4,2.16,2.16,0,0,1-1.13.82s-.06,0,0,.09L404,15.86a.17.17,0,0,1,0,.07c0,.07-.05.1-.14.1h-1.47A.18.18,0,0,1,402.27,15.92Zm-2.75-6.78v2a.05.05,0,0,0,.06.06h1.57A1.18,1.18,0,0,0,402,11a1.14,1.14,0,0,0,0-1.56,1.14,1.14,0,0,0-.83-.31h-1.57A.05.05,0,0,0,399.52,9.14Z" fill="#393d4f"/><path d="M410.78,7.67a.14.14,0,0,1,.05.1V9a.14.14,0,0,1-.05.1.12.12,0,0,1-.1,0h-2.15a.05.05,0,0,0-.06.06v6.74a.14.14,0,0,1-.14.14h-1.4a.15.15,0,0,1-.11,0,.18.18,0,0,1,0-.1V9.15a.05.05,0,0,0-.06-.06h-2.09a.14.14,0,0,1-.14-.14V7.77a.14.14,0,0,1,.14-.14h6.05A.12.12,0,0,1,410.78,7.67Z" fill="#393d4f"/><path d="M413.65,14.55s0,0,0,0h3.25a.15.15,0,0,1,.11,0,.18.18,0,0,1,0,.1v1.17a.18.18,0,0,1,0,.1.15.15,0,0,1-.11,0h-5.4a.14.14,0,0,1-.14-.14V14.78a.29.29,0,0,1,.07-.18c.39-.38.8-.8,1.2-1.25l.77-.85c.22-.26.45-.51.68-.75a3.51,3.51,0,0,0,1.1-1.8.89.89,0,0,0-.3-.69,1.26,1.26,0,0,0-1.56,0,.9.9,0,0,0-.3.71v.3a.18.18,0,0,1,0,.1.15.15,0,0,1-.11,0H411.5a.12.12,0,0,1-.1,0,.14.14,0,0,1,0-.1V9.71a2.08,2.08,0,0,1,.41-1.15,2.36,2.36,0,0,1,1-.76,3.41,3.41,0,0,1,1.39-.27,3.29,3.29,0,0,1,1.48.32,2.39,2.39,0,0,1,1,.86,2.18,2.18,0,0,1,.34,1.2,2.33,2.33,0,0,1-.25,1,6.15,6.15,0,0,1-.75,1.14q-.37.47-.81.93l-1.28,1.32-.18.18A0,0,0,0,0,413.65,14.55Z" fill="#393d4f"/></svg>