<svg width="1280" height="720" xmlns="http://www.w3.org/2000/svg" xmlns:xlink="http://www.w3.org/1999/xlink" overflow="hidden"><defs><clipPath id="clip0"><rect x="0" y="0" width="1280" height="720"/></clipPath></defs><g clip-path="url(#clip0)"><rect x="0" y="0" width="1280" height="720" fill="#FFFFFF"/><path d="M3.96009-2 148.218-1.9999 148.218 2.0001 3.96009 2ZM14.9523 8.72757-0.0092696-6.98731e-09 14.9523-8.72755C15.9064-9.28411 17.131-8.96183 17.6876-8.00773 18.2441-7.05363 17.9219-5.82899 16.9677-5.27243L4.96774 1.72756 4.96774-1.72755 16.9677 5.27245C17.9218 5.82901 18.2441 7.05365 17.6876 8.00775 17.131 8.96186 15.9064 9.28413 14.9523 8.72757ZM137.225-8.72746 152.187 0.000104309 137.225 8.72765C136.271 9.28421 135.047 8.96194 134.49 8.00784 133.934 7.05373 134.256 5.8291 135.21 5.27254L147.21-1.72746 147.21 1.72766 135.21-5.27235C134.256-5.82891 133.934-7.05354 134.49-8.00765 135.047-8.96175 136.271-9.28402 137.225-8.72746Z" transform="matrix(-1 0 0 1 351.178 116)"/><path d="M246.5 246C246.5 230.26 259.484 217.5 275.5 217.5 291.516 217.5 304.5 230.26 304.5 246 304.5 261.74 291.516 274.5 275.5 274.5 259.484 274.5 246.5 261.74 246.5 246Z" stroke="#000000" stroke-width="1.33333" stroke-miterlimit="8" fill="#FFFFFF" fill-rule="evenodd"/><text font-family="DengXian,DengXian_MSFontService,sans-serif" font-weight="400" font-size="24" transform="translate(265.617 253)">id</text><path d="M246.5 373C246.5 357.26 259.484 344.5 275.5 344.5 291.516 344.5 304.5 357.26 304.5 373 304.5 388.74 291.516 401.5 275.5 401.5 259.484 401.5 246.5 388.74 246.5 373Z" stroke="#000000" stroke-width="1.33333" stroke-miterlimit="8" fill="#FFFFFF" fill-rule="evenodd"/><text font-family="DengXian,DengXian_MSFontService,sans-serif" font-weight="400" font-size="24" transform="translate(265.617 380)">id</text><path d="M246.5 500C246.5 484.26 259.484 471.5 275.5 471.5 291.516 471.5 304.5 484.26 304.5 500 304.5 515.74 291.516 528.5 275.5 528.5 259.484 528.5 246.5 515.74 246.5 500Z" stroke="#000000" stroke-width="1.33333" stroke-miterlimit="8" fill="#FFFFFF" fill-rule="evenodd"/><text font-family="DengXian,DengXian_MSFontService,sans-serif" font-weight="400" font-size="24" transform="translate(265.617 507)">id</text><path d="M430.5 180C430.5 164.26 443.484 151.5 459.5 151.5 475.516 151.5 488.5 164.26 488.5 180 488.5 195.74 475.516 208.5 459.5 208.5 443.484 208.5 430.5 195.74 430.5 180Z" stroke="#000000" stroke-width="1.33333" stroke-miterlimit="8" fill="#FFFFFF" fill-rule="evenodd"/><text font-family="DengXian,DengXian_MSFontService,sans-serif" font-weight="400" font-size="24" transform="translate(455.522 187)">f</text><path d="M430.5 307C430.5 291.26 443.484 278.5 459.5 278.5 475.516 278.5 488.5 291.26 488.5 307 488.5 322.74 475.516 335.5 459.5 335.5 443.484 335.5 430.5 322.74 430.5 307Z" stroke="#000000" stroke-width="1.33333" stroke-miterlimit="8" fill="#FFFFFF" fill-rule="evenodd"/><text font-family="DengXian,DengXian_MSFontService,sans-serif" font-weight="400" font-size="24" transform="translate(455.522 314)">f</text><path d="M430.5 434C430.5 418.26 443.484 405.5 459.5 405.5 475.516 405.5 488.5 418.26 488.5 434 488.5 449.74 475.516 462.5 459.5 462.5 443.484 462.5 430.5 449.74 430.5 434Z" stroke="#000000" stroke-width="1.33333" stroke-miterlimit="8" fill="#FFFFFF" fill-rule="evenodd"/><text font-family="DengXian,DengXian_MSFontService,sans-serif" font-weight="400" font-size="24" transform="translate(455.522 441)">f</text><path d="M430.5 561C430.5 545.26 443.484 532.5 459.5 532.5 475.516 532.5 488.5 545.26 488.5 561 488.5 576.74 475.516 589.5 459.5 589.5 443.484 589.5 430.5 576.74 430.5 561Z" stroke="#000000" stroke-width="1.33333" stroke-miterlimit="8" fill="#FFFFFF" fill-rule="evenodd"/><text font-family="DengXian,DengXian_MSFontService,sans-serif" font-weight="400" font-size="24" transform="translate(455.522 568)">f</text><path d="M614.5 246C614.5 230.26 627.708 217.5 644 217.5 660.292 217.5 673.5 230.26 673.5 246 673.5 261.74 660.292 274.5 644 274.5 627.708 274.5 614.5 261.74 614.5 246Z" stroke="#000000" stroke-width="1.33333" stroke-miterlimit="8" fill="#FFFFFF" fill-rule="evenodd"/><text font-family="DengXian,DengXian_MSFontService,sans-serif" font-weight="400" font-size="24" transform="translate(640.055 253)">f</text><path d="M614.5 373C614.5 357.26 627.708 344.5 644 344.5 660.292 344.5 673.5 357.26 673.5 373 673.5 388.74 660.292 401.5 644 401.5 627.708 401.5 614.5 388.74 614.5 373Z" stroke="#000000" stroke-width="1.33333" stroke-miterlimit="8" fill="#FFFFFF" fill-rule="evenodd"/><text font-family="DengXian,DengXian_MSFontService,sans-serif" font-weight="400" font-size="24" transform="translate(640.055 380)">f</text><path d="M614.5 500C614.5 484.26 627.708 471.5 644 471.5 660.292 471.5 673.5 484.26 673.5 500 673.5 515.74 660.292 528.5 644 528.5 627.708 528.5 614.5 515.74 614.5 500Z" stroke="#000000" stroke-width="1.33333" stroke-miterlimit="8" fill="#FFFFFF" fill-rule="evenodd"/><text font-family="DengXian,DengXian_MSFontService,sans-serif" font-weight="400" font-size="24" transform="translate(640.055 507)">f</text><path d="M784.5 307C784.5 291.26 797.484 278.5 813.5 278.5 829.516 278.5 842.5 291.26 842.5 307 842.5 322.74 829.516 335.5 813.5 335.5 797.484 335.5 784.5 322.74 784.5 307Z" stroke="#000000" stroke-width="1.33333" stroke-miterlimit="8" fill="#FFFFFF" fill-rule="evenodd"/><text font-family="DengXian,DengXian_MSFontService,sans-serif" font-weight="400" font-size="24" transform="translate(809.3 314)">f</text><path d="M784.5 434C784.5 418.26 797.484 405.5 813.5 405.5 829.516 405.5 842.5 418.26 842.5 434 842.5 449.74 829.516 462.5 813.5 462.5 797.484 462.5 784.5 449.74 784.5 434Z" stroke="#000000" stroke-width="1.33333" stroke-miterlimit="8" fill="#FFFFFF" fill-rule="evenodd"/><text font-family="DengXian,DengXian_MSFontService,sans-serif" font-weight="400" font-size="24" transform="translate(809.3 441)">f</text><path d="M939.5 246C939.5 230.26 952.484 217.5 968.5 217.5 984.516 217.5 997.5 230.26 997.5 246 997.5 261.74 984.516 274.5 968.5 274.5 952.484 274.5 939.5 261.74 939.5 246Z" stroke="#000000" stroke-width="1.33333" stroke-miterlimit="8" fill="#FFFFFF" fill-rule="evenodd"/><text font-family="DengXian,DengXian_MSFontService,sans-serif" font-weight="400" font-size="24" transform="translate(964.678 253)">f</text><path d="M939.5 373C939.5 357.26 952.484 344.5 968.5 344.5 984.516 344.5 997.5 357.26 997.5 373 997.5 388.74 984.516 401.5 968.5 401.5 952.484 401.5 939.5 388.74 939.5 373Z" stroke="#000000" stroke-width="1.33333" stroke-miterlimit="8" fill="#FFFFFF" fill-rule="evenodd"/><text font-family="DengXian,DengXian_MSFontService,sans-serif" font-weight="400" font-size="24" transform="translate(964.678 380)">f</text><path d="M939.5 500C939.5 484.26 952.484 471.5 968.5 471.5 984.516 471.5 997.5 484.26 997.5 500 997.5 515.74 984.516 528.5 968.5 528.5 952.484 528.5 939.5 515.74 939.5 500Z" stroke="#000000" stroke-width="1.33333" stroke-miterlimit="8" fill="#FFFFFF" fill-rule="evenodd"/><text font-family="DengXian,DengXian_MSFontService,sans-serif" font-weight="400" font-size="24" transform="translate(964.678 507)">f</text><path d="M3.95879-2 514.745-1.9999 514.745 2.0001 3.95879 2ZM14.9523 8.72756-0.0092696-2.01742e-08 14.9523-8.72755C15.9064-9.28411 17.131-8.96184 17.6876-8.00774 18.2441-7.05363 17.9218-5.829 16.9677-5.27244L4.96774 1.72756 4.96774-1.72756 16.9677 5.27245C17.9218 5.82901 18.2441 7.05364 17.6876 8.00775 17.131 8.96185 15.9064 9.28412 14.9523 8.72756ZM503.745-8.72746 518.707 0.00010487 503.745 8.72766C502.791 9.28422 501.567 8.96195 501.01 8.00784 500.454 7.05374 500.776 5.8291 501.73 5.27254L513.73-1.72745 513.73 1.72766 501.73-5.27234C500.776-5.8289 500.454-7.05354 501.01-8.00764 501.567-8.96174 502.791-9.28402 503.745-8.72746Z" transform="matrix(-1 0 0 1 881.698 117)"/><path d="M3.96009-2 148.218-1.9999 148.218 2.0001 3.96009 2ZM14.9523 8.72757-0.0092696-6.98731e-09 14.9523-8.72755C15.9064-9.28411 17.131-8.96183 17.6876-8.00773 18.2441-7.05363 17.9219-5.82899 16.9677-5.27243L4.96774 1.72756 4.96774-1.72755 16.9677 5.27245C17.9218 5.82901 18.2441 7.05365 17.6876 8.00775 17.131 8.96186 15.9064 9.28413 14.9523 8.72757ZM137.225-8.72746 152.187 0.000104309 137.225 8.72765C136.271 9.28421 135.047 8.96194 134.49 8.00784 133.934 7.05373 134.256 5.8291 135.21 5.27254L147.21-1.72746 147.21 1.72766 135.21-5.27235C134.256-5.82891 133.934-7.05354 134.49-8.00765 135.047-8.96175 136.271-9.28402 137.225-8.72746Z" transform="matrix(-1 0 0 1 1044.18 116)"/><text font-family="DengXian,DengXian_MSFontService,sans-serif" font-weight="400" font-size="24" transform="translate(238.755 97)">输入层</text><text font-family="DengXian,DengXian_MSFontService,sans-serif" font-weight="400" font-size="24" transform="translate(931.732 97)">输出层</text><text font-family="DengXian,DengXian_MSFontService,sans-serif" font-weight="400" font-size="24" transform="translate(596.187 97)">隐藏层</text><rect x="84.5001" y="471.5" width="58" height="57" stroke="#000000" stroke-width="1.33333" stroke-miterlimit="8" fill="none"/><text font-family="DengXian,DengXian_MSFontService,sans-serif" font-weight="400" font-size="24" transform="translate(94.6388 507)">X_3</text><rect x="83.5001" y="343.5" width="58" height="56" stroke="#000000" stroke-width="1.33333" stroke-miterlimit="8" fill="none"/><text font-family="DengXian,DengXian_MSFontService,sans-serif" font-weight="400" font-size="24" transform="translate(93.8922 379)">X_2</text><rect x="84.5001" y="217.5" width="58" height="57" stroke="#000000" stroke-width="1.33333" stroke-miterlimit="8" fill="none"/><text font-family="DengXian,DengXian_MSFontService,sans-serif" font-weight="400" font-size="24" transform="translate(94.6388 253)">X_1</text><path d="M142.5 245.167 239.833 245.167 239.833 245.833 142.5 245.833ZM238.5 241.5 246.5 245.5 238.5 249.5Z"/><path d="M142.5 499.167 239.833 499.167 239.833 499.833 142.5 499.833ZM238.5 495.5 246.5 499.5 238.5 503.5Z"/><path d="M141.504 371.167 239.585 372.369 239.577 373.036 141.496 371.833ZM238.296 368.686 246.247 372.784 238.198 376.686Z"/><path d="M221.405 307.467 234.072 307.467 234.072 332.467 221.405 332.467Z" fill="#00FF00" fill-rule="evenodd"/><text font-family="DengXian,DengXian_MSFontService,sans-serif" font-weight="400" font-size="24" transform="translate(221.405 326)">0</text><text font-family="DengXian,DengXian_MSFontService,sans-serif" font-weight="400" font-size="24" transform="translate(214.009 345)">X_2</text><path d="M221.405 434.401 234.072 434.401 234.072 459.401 221.405 459.401Z" fill="#00FF00" fill-rule="evenodd"/><text font-family="DengXian,DengXian_MSFontService,sans-serif" font-weight="400" font-size="24" transform="translate(221.405 453)">0</text><text font-family="DengXian,DengXian_MSFontService,sans-serif" font-weight="400" font-size="24" transform="translate(214.009 472)">X_3</text><path d="M0.154731-0.295244 119.761 62.3879 119.451 62.9783-0.154731 0.295244ZM120.282 58.5213 125.511 65.7777 116.568 65.6071Z" transform="matrix(1 0 0 -1 306.5 246.278)"/><path d="M304.646 245.2 424.164 303.436 423.872 304.035 304.354 245.8ZM424.572 299.556 430.011 306.656 421.067 306.747Z"/><path d="M304.777 245.315 426.588 427.859 426.034 428.229 304.223 245.685ZM428.898 424.714 430.011 433.589 422.243 429.155Z"/><path d="M304.81 245.377 427.853 554.205 427.234 554.452 304.19 245.623ZM430.766 551.61 430.011 560.522 423.334 554.571Z"/><path d="M0.279316-0.181916 122.152 186.943 121.594 187.307-0.279316 0.181916ZM124.497 183.824 125.511 192.711 117.793 188.19Z" transform="matrix(1 0 0 -1 304.5 373.211)"/><path d="M0.154731-0.295244 119.761 62.3879 119.451 62.9783-0.154731 0.295244ZM120.282 58.5213 125.511 65.7777 116.568 65.6071Z" transform="matrix(1 0 0 -1 304.5 372.278)"/><path d="M304.646 372.2 424.164 430.436 423.872 431.035 304.354 372.8ZM424.572 426.556 430.011 433.656 421.067 433.747Z"/><path d="M304.646 499.2 424.164 557.436 423.872 558.035 304.354 499.8ZM424.572 553.556 430.011 560.656 421.067 560.747Z"/><path d="M304.777 372.315 426.588 554.859 426.034 555.229 304.223 372.685ZM428.898 551.714 430.011 560.589 422.243 556.155Z"/><path d="M0.310271-0.121831 123.385 313.318 122.765 313.562-0.310271 0.121831ZM126.31 310.736 125.511 319.644 118.864 313.66Z" transform="matrix(1 0 0 -1 304.5 500.144)"/><path d="M0.279316-0.181916 122.152 186.943 121.594 187.307-0.279316 0.181916ZM124.497 183.824 125.511 192.711 117.793 188.19Z" transform="matrix(1 0 0 -1 304.5 499.211)"/><path d="M0.154731-0.295244 119.761 62.3879 119.451 62.9783-0.154731 0.295244ZM120.282 58.5213 125.511 65.7777 116.568 65.6071Z" transform="matrix(1 0 0 -1 304.5 499.278)"/><path d="M488.654 180.204 608.964 242.901 608.656 243.492 488.346 180.796ZM609.476 239.033 614.722 246.278 605.779 246.128Z"/><path d="M489.779 182.317 612.349 369.452 611.791 369.817 489.221 182.683ZM614.685 366.327 615.722 375.211 607.993 370.711Z"/><path d="M488.81 180.378 612.584 493.823 611.964 494.068 488.19 180.622ZM615.504 491.234 614.722 500.144 608.064 494.173Z"/><path d="M0.145342-0.299978 120.368 57.9487 120.077 58.5487-0.145342 0.299978ZM120.767 54.0677 126.222 61.1556 117.279 61.2671Z" transform="matrix(1 0 0 -1 488.5 306.656)"/><path d="M488.654 306.204 608.964 368.901 608.656 369.492 488.346 306.796ZM609.476 365.033 614.722 372.278 605.779 372.128Z"/><path d="M0.276785-0.185744 122.784 182.367 122.231 182.739-0.276785 0.185744ZM125.086 179.217 126.222 188.089 118.443 183.675Z" transform="matrix(1 0 0 -1 488.5 433.589)"/><path d="M488.779 306.317 611.349 493.452 610.791 493.817 488.221 306.683ZM613.685 490.327 614.722 499.211 606.993 494.711Z"/><path d="M488.654 433.204 608.964 495.901 608.656 496.492 488.346 433.796ZM609.476 492.033 614.722 499.278 605.779 499.128Z"/><path d="M0.30942-0.123978 124.052 308.711 123.434 308.959-0.30942 0.123978ZM126.96 306.108 126.222 315.022 119.534 309.084Z" transform="matrix(1 0 0 -1 488.5 560.522)"/><path d="M0.145342-0.299978 120.368 57.9487 120.077 58.5487-0.145342 0.299978ZM120.767 54.0677 126.222 61.1556 117.279 61.2671Z" transform="matrix(1 0 0 -1 488.5 433.656)"/><path d="M842.798 306.35 936.865 493.107 936.27 493.407 842.202 306.65ZM939.54 490.267 939.567 499.211 932.396 493.866Z"/><path d="M842.687 306.224 934.235 368.262 933.861 368.814 842.313 306.776ZM935.188 364.479 939.567 372.278 930.7 371.101Z"/><path d="M0.177687-0.282026 91.6039 57.3198 91.2485 57.8839-0.177687 0.282026ZM92.4303 53.5068 97.0667 61.1556 88.1658 60.2754Z" transform="matrix(1 0 0 -1 842.5 306.656)"/><path d="M0.296214-0.152867 94.3055 182.012 93.713 182.317-0.296214 0.152867ZM96.9524 179.145 97.0667 188.089 89.8433 182.814Z" transform="matrix(1 0 0 -1 842.5 433.589)"/><path d="M842.687 433.224 934.235 495.262 933.861 495.814 842.313 433.776ZM935.188 491.479 939.567 499.278 930.7 498.101Z"/><path d="M0.177687-0.282026 91.6039 57.3198 91.2485 57.8839-0.177687 0.282026ZM92.4303 53.5068 97.0667 61.1556 88.1658 60.2754Z" transform="matrix(1 0 0 -1 842.5 433.656)"/><path d="M997.5 245.167 1112.33 245.167 1112.33 245.833 997.5 245.833ZM1110.99 241.5 1118.99 245.5 1110.99 249.5Z"/><path d="M0.0035232-0.333315 114.83 0.880423 114.823 1.54705-0.0035232 0.333315ZM113.535-2.80013 121.493 1.2842 113.451 5.19942Z" transform="matrix(1 0 0 -1 997.5 372.784)"/><path d="M997.5 499.167 1112.33 499.167 1112.33 499.833 997.5 499.833ZM1110.99 495.5 1118.99 499.5 1110.99 503.5Z"/><path d="M0.145342-0.299978 120.368 57.9487 120.077 58.5487-0.145342 0.299978ZM120.767 54.0677 126.222 61.1556 117.279 61.2671Z" transform="matrix(1 0 0 -1 488.5 560.656)"/><path d="M0.276785-0.185744 122.784 182.367 122.231 182.739-0.276785 0.185744ZM125.086 179.217 126.222 188.089 118.443 183.675Z" transform="matrix(1 0 0 -1 488.5 560.589)"/><path d="M673.661 245.208 778.756 303.145 778.434 303.729 673.339 245.792ZM779.359 299.29 784.434 306.656 775.497 306.296Z"/><path d="M673.787 245.331 781.334 427.677 780.76 428.016 673.213 245.669ZM783.815 424.666 784.434 433.589 776.924 428.73Z"/><path d="M0.170009-0.286719 105.369 62.0909 105.029 62.6643-0.170009 0.286719ZM106.092 58.2569 110.934 65.7777 102.012 65.1382Z" transform="matrix(1 0 0 -1 673.5 372.278)"/><path d="M0.170009-0.286719 105.369 62.0909 105.029 62.6643-0.170009 0.286719ZM106.092 58.2569 110.934 65.7777 102.012 65.1382Z" transform="matrix(1 0 0 -1 673.5 499.278)"/><path d="M0.288888-0.166298 107.896 186.767 107.319 187.099-0.288888 0.166298ZM110.409 183.782 110.934 192.711 103.476 187.773Z" transform="matrix(1 0 0 -1 673.5 499.211)"/><path d="M673.661 372.208 778.756 430.145 778.434 430.729 673.339 372.792ZM779.359 426.29 784.434 433.656 775.497 433.296Z"/><rect x="1119.5" y="217.5" width="58" height="57" stroke="#000000" stroke-width="1.33333" stroke-miterlimit="8" fill="none"/><text font-family="DengXian,DengXian_MSFontService,sans-serif" font-weight="400" font-size="24" transform="translate(1130.07 253)">Y_1</text><rect x="1119.5" y="343.5" width="58" height="56" stroke="#000000" stroke-width="1.33333" stroke-miterlimit="8" fill="none"/><text font-family="DengXian,DengXian_MSFontService,sans-serif" font-weight="400" font-size="24" transform="translate(1130.06 379)">Y_2</text><rect x="1119.5" y="471.5" width="58" height="57" stroke="#000000" stroke-width="1.33333" stroke-miterlimit="8" fill="none"/><text font-family="DengXian,DengXian_MSFontService,sans-serif" font-weight="400" font-size="24" transform="translate(1130.06 507)">Y_3</text><rect x="237.5" y="615.5" width="67" height="65" stroke="#000000" stroke-width="1.33333" stroke-miterlimit="8" fill="none"/><text font-family="DengXian,DengXian_MSFontService,sans-serif" font-weight="400" font-size="24" transform="translate(264.476 655)">0</text><rect x="425.5" y="616.5" width="68" height="65" stroke="#000000" stroke-width="1.33333" stroke-miterlimit="8" fill="none"/><text font-family="DengXian,DengXian_MSFontService,sans-serif" font-weight="400" font-size="24" transform="translate(452.689 656)">1</text><rect x="606.5" y="615.5" width="67" height="66" stroke="#000000" stroke-width="1.33333" stroke-miterlimit="8" fill="none"/><text font-family="DengXian,DengXian_MSFontService,sans-serif" font-weight="400" font-size="24" transform="translate(633.204 656)">2</text><rect x="779.5" y="616.5" width="67" height="65" stroke="#000000" stroke-width="1.33333" stroke-miterlimit="8" fill="none"/><text font-family="DengXian,DengXian_MSFontService,sans-serif" font-weight="400" font-size="24" transform="translate(806.467 656)">3</text><rect x="935.5" y="615.5" width="67" height="65" stroke="#000000" stroke-width="1.33333" stroke-miterlimit="8" fill="none"/><text font-family="DengXian,DengXian_MSFontService,sans-serif" font-weight="400" font-size="24" transform="translate(961.844 655)">4</text><text font-family="DengXian,DengXian_MSFontService,sans-serif" font-weight="400" font-size="24" transform="translate(128.329 656)">层数</text><path d="M300.997 177.047 313.664 177.047 313.664 202.047 300.997 202.047Z" fill="#00FF00" fill-rule="evenodd"/><text font-family="DengXian,DengXian_MSFontService,sans-serif" font-weight="400" font-size="24" transform="translate(300.997 196)">0</text><text font-family="DengXian,DengXian_MSFontService,sans-serif" font-weight="400" font-size="24" transform="translate(293.601 214)">Y_1</text><path d="M226.239 179.422 238.906 179.422 238.906 204.422 226.239 204.422Z" fill="#00FF00" fill-rule="evenodd"/><text font-family="DengXian,DengXian_MSFontService,sans-serif" font-weight="400" font-size="24" transform="translate(226.239 198)">0</text><text font-family="DengXian,DengXian_MSFontService,sans-serif" font-weight="400" font-size="24" transform="translate(218.843 217)">X_1</text><path d="M302.479 296.018 315.145 296.018 315.145 321.018 302.479 321.018Z" fill="#00FF00" fill-rule="evenodd"/><text font-family="DengXian,DengXian_MSFontService,sans-serif" font-weight="400" font-size="24" transform="translate(302.479 315)">0</text><text font-family="DengXian,DengXian_MSFontService,sans-serif" font-weight="400" font-size="24" transform="translate(295.082 333)">Y_2</text><path d="M299.52 425.34 312.187 425.34 312.187 450.34 299.52 450.34Z" fill="#00FF00" fill-rule="evenodd"/><text font-family="DengXian,DengXian_MSFontService,sans-serif" font-weight="400" font-size="24" transform="translate(299.52 444)">0</text><text font-family="DengXian,DengXian_MSFontService,sans-serif" font-weight="400" font-size="24" transform="translate(292.124 462)">Y_3</text><path d="M671.51 418.507 684.177 418.507 684.177 443.507 671.51 443.507Z" fill="#FF0000" fill-rule="evenodd"/><text fill="#FFFFFF" font-family="DengXian,DengXian_MSFontService,sans-serif" font-weight="400" font-size="24" transform="translate(671.51 438)">2</text><text font-family="DengXian,DengXian_MSFontService,sans-serif" font-weight="400" font-size="24" transform="translate(664.113 456)">Y_3</text><path d="M596.752 420.882 609.419 420.882 609.419 445.882 596.752 445.882Z" fill="#FF0000" fill-rule="evenodd"/><text fill="#FFFFFF" font-family="DengXian,DengXian_MSFontService,sans-serif" font-weight="400" font-size="24" transform="translate(596.752 440)">2</text><text font-family="DengXian,DengXian_MSFontService,sans-serif" font-weight="400" font-size="24" transform="translate(589.356 458)">X_3</text><path d="M484.639 365.913 497.306 365.913 497.306 390.913 484.639 390.913Z" fill="#FF0000" fill-rule="evenodd"/><text fill="#FFFFFF" font-family="DengXian,DengXian_MSFontService,sans-serif" font-weight="400" font-size="24" transform="translate(484.639 385)">1</text><text font-family="DengXian,DengXian_MSFontService,sans-serif" font-weight="400" font-size="24" transform="translate(477.352 401)">Y_3</text><path d="M409.991 365.913 422.657 365.913 422.657 390.913 409.991 390.913Z" fill="#FF0000" fill-rule="evenodd"/><text fill="#FFFFFF" font-family="DengXian,DengXian_MSFontService,sans-serif" font-weight="400" font-size="24" transform="translate(409.991 385)">1</text><text font-family="DengXian,DengXian_MSFontService,sans-serif" font-weight="400" font-size="24" transform="translate(402.594 403)">X_3</text><path d="M479.219 242.031 491.885 242.031 491.885 267.031 479.219 267.031Z" fill="#FF0000" fill-rule="evenodd"/><text fill="#FFFFFF" font-family="DengXian,DengXian_MSFontService,sans-serif" font-weight="400" font-size="24" transform="translate(479.219 261)">1</text><text font-family="DengXian,DengXian_MSFontService,sans-serif" font-weight="400" font-size="24" transform="translate(471.931 277)">Y_2</text><path d="M404.57 242.031 417.236 242.031 417.236 267.031 404.57 267.031Z" fill="#FF0000" fill-rule="evenodd"/><text fill="#FFFFFF" font-family="DengXian,DengXian_MSFontService,sans-serif" font-weight="400" font-size="24" transform="translate(404.57 261)">1</text><text font-family="DengXian,DengXian_MSFontService,sans-serif" font-weight="400" font-size="24" transform="translate(397.173 279)">X_2</text><path d="M484.639 481.568 497.306 481.568 497.306 506.568 484.639 506.568Z" fill="#FF0000" fill-rule="evenodd"/><text fill="#FFFFFF" font-family="DengXian,DengXian_MSFontService,sans-serif" font-weight="400" font-size="24" transform="translate(484.639 501)">1</text><text font-family="DengXian,DengXian_MSFontService,sans-serif" font-weight="400" font-size="24" transform="translate(477.352 516)">Y_4</text><path d="M409.991 481.568 422.657 481.568 422.657 506.568 409.991 506.568Z" fill="#FF0000" fill-rule="evenodd"/><text fill="#FFFFFF" font-family="DengXian,DengXian_MSFontService,sans-serif" font-weight="400" font-size="24" transform="translate(409.991 501)">1</text><text font-family="DengXian,DengXian_MSFontService,sans-serif" font-weight="400" font-size="24" transform="translate(402.594 519)">X_4</text><path d="M484.614 121.108 497.281 121.108 497.281 146.108 484.614 146.108Z" fill="#FF0000" fill-rule="evenodd"/><text fill="#FFFFFF" font-family="DengXian,DengXian_MSFontService,sans-serif" font-weight="400" font-size="24" transform="translate(484.614 140)">1</text><text font-family="DengXian,DengXian_MSFontService,sans-serif" font-weight="400" font-size="24" transform="translate(477.218 158)">Y_1</text><path d="M409.856 123.483 422.523 123.483 422.523 148.483 409.856 148.483Z" fill="#FF0000" fill-rule="evenodd"/><text fill="#FFFFFF" font-family="DengXian,DengXian_MSFontService,sans-serif" font-weight="400" font-size="24" transform="translate(409.856 142)">1</text><text font-family="DengXian,DengXian_MSFontService,sans-serif" font-weight="400" font-size="24" transform="translate(402.46 161)">X_1</text><path d="M670.66 297.863 683.327 297.863 683.327 322.863 670.66 322.863Z" fill="#FF0000" fill-rule="evenodd"/><text fill="#FFFFFF" font-family="DengXian,DengXian_MSFontService,sans-serif" font-weight="400" font-size="24" transform="translate(670.66 317)">2</text><text font-family="DengXian,DengXian_MSFontService,sans-serif" font-weight="400" font-size="24" transform="translate(663.264 335)">Y_2</text><path d="M595.902 300.238 608.569 300.238 608.569 325.238 595.902 325.238Z" fill="#FF0000" fill-rule="evenodd"/><text fill="#FFFFFF" font-family="DengXian,DengXian_MSFontService,sans-serif" font-weight="400" font-size="24" transform="translate(595.902 319)">2</text><text font-family="DengXian,DengXian_MSFontService,sans-serif" font-weight="400" font-size="24" transform="translate(588.506 337)">X_2</text><path d="M668.618 179.214 681.284 179.214 681.284 204.214 668.618 204.214Z" fill="#FF0000" fill-rule="evenodd"/><text fill="#FFFFFF" font-family="DengXian,DengXian_MSFontService,sans-serif" font-weight="400" font-size="24" transform="translate(668.618 198)">2</text><text font-family="DengXian,DengXian_MSFontService,sans-serif" font-weight="400" font-size="24" transform="translate(661.221 216)">Y_1</text><path d="M593.86 181.589 606.527 181.589 606.527 206.589 593.86 206.589Z" fill="#FF0000" fill-rule="evenodd"/><text fill="#FFFFFF" font-family="DengXian,DengXian_MSFontService,sans-serif" font-weight="400" font-size="24" transform="translate(593.86 201)">2</text><text font-family="DengXian,DengXian_MSFontService,sans-serif" font-weight="400" font-size="24" transform="translate(586.464 219)">X_1</text><path d="M989.479 431.24 1002.15 431.24 1002.15 456.24 989.479 456.24Z" fill="#FF00FF" fill-rule="evenodd"/><text fill="#FFFF00" font-family="DengXian,DengXian_MSFontService,sans-serif" font-weight="400" font-size="24" transform="translate(989.479 450)">4</text><text font-family="DengXian,DengXian_MSFontService,sans-serif" font-weight="400" font-size="24" transform="translate(982.083 468)">Y_3</text><path d="M916.484 433.58 929.15 433.58 929.15 458.58 916.484 458.58Z" fill="#FF00FF" fill-rule="evenodd"/><text fill="#FFFF00" font-family="DengXian,DengXian_MSFontService,sans-serif" font-weight="400" font-size="24" transform="translate(916.484 453)">4</text><text font-family="DengXian,DengXian_MSFontService,sans-serif" font-weight="400" font-size="24" transform="translate(907.325 471)">X_3</text><path d="M834.596 361.465 847.263 361.465 847.263 386.465 834.596 386.465Z" fill="#FF0000" fill-rule="evenodd"/><text fill="#FFFFFF" font-family="DengXian,DengXian_MSFontService,sans-serif" font-weight="400" font-size="24" transform="translate(834.596 380)">3</text><text font-family="DengXian,DengXian_MSFontService,sans-serif" font-weight="400" font-size="24" transform="translate(827.2 399)">Y_2</text><path d="M759.839 363.84 772.505 363.84 772.505 388.84 759.839 388.84Z" fill="#FF0000" fill-rule="evenodd"/><text fill="#FFFFFF" font-family="DengXian,DengXian_MSFontService,sans-serif" font-weight="400" font-size="24" transform="translate(759.839 383)">3</text><text font-family="DengXian,DengXian_MSFontService,sans-serif" font-weight="400" font-size="24" transform="translate(752.442 401)">X_2</text><path d="M837.978 234.853 850.645 234.853 850.645 259.853 837.978 259.853Z" fill="#FF0000" fill-rule="evenodd"/><text fill="#FFFFFF" font-family="DengXian,DengXian_MSFontService,sans-serif" font-weight="400" font-size="24" transform="translate(837.978 254)">3</text><text font-family="DengXian,DengXian_MSFontService,sans-serif" font-weight="400" font-size="24" transform="translate(830.582 272)">Y_1</text><path d="M762.04 237.228 774.706 237.228 774.706 262.228 762.04 262.228Z" fill="#FF0000" fill-rule="evenodd"/><text fill="#FFFFFF" font-family="DengXian,DengXian_MSFontService,sans-serif" font-weight="400" font-size="24" transform="translate(762.04 256)">3</text><text font-family="DengXian,DengXian_MSFontService,sans-serif" font-weight="400" font-size="24" transform="translate(755.824 274)">X_1</text><path d="M993.52 307.467 1006.19 307.467 1006.19 332.467 993.52 332.467Z" fill="#FF00FF" fill-rule="evenodd"/><text fill="#FFFF00" font-family="DengXian,DengXian_MSFontService,sans-serif" font-weight="400" font-size="24" transform="translate(993.52 326)">4</text><text font-family="DengXian,DengXian_MSFontService,sans-serif" font-weight="400" font-size="24" transform="translate(986.123 345)">Y_2</text><path d="M918.762 309.843 931.428 309.843 931.428 334.843 918.762 334.843Z" fill="#FF00FF" fill-rule="evenodd"/><text fill="#FFFF00" font-family="DengXian,DengXian_MSFontService,sans-serif" font-weight="400" font-size="24" transform="translate(918.762 329)">4</text><text font-family="DengXian,DengXian_MSFontService,sans-serif" font-weight="400" font-size="24" transform="translate(911.365 347)">X_2</text><path d="M992.341 177.787 1005.01 177.787 1005.01 202.787 992.341 202.787Z" fill="#FF00FF" fill-rule="evenodd"/><text fill="#FFFF00" font-family="DengXian,DengXian_MSFontService,sans-serif" font-weight="400" font-size="24" transform="translate(992.341 197)">4</text><text font-family="DengXian,DengXian_MSFontService,sans-serif" font-weight="400" font-size="24" transform="translate(984.944 215)">Y_1</text><path d="M917.583 180.162 930.25 180.162 930.25 205.162 917.583 205.162Z" fill="#FF00FF" fill-rule="evenodd"/><text fill="#FFFF00" font-family="DengXian,DengXian_MSFontService,sans-serif" font-weight="400" font-size="24" transform="translate(917.583 199)">4</text><text font-family="DengXian,DengXian_MSFontService,sans-serif" font-weight="400" font-size="24" transform="translate(910.187 217)">X_1</text><text font-family="Consolas,Consolas_MSFontService,sans-serif" font-style="italic" font-weight="400" font-size="24" transform="translate(1076.55 640)">include</text><text font-family="Consolas,Consolas_MSFontService,sans-serif" font-style="italic" font-weight="400" font-size="24" transform="translate(1168.71 640)">-</text><text font-family="Consolas,Consolas_MSFontService,sans-serif" font-style="italic" font-weight="400" font-size="24" transform="translate(1181.88 640)">yy</text><text font-family="Consolas,Consolas_MSFontService,sans-serif" font-style="italic" font-weight="400" font-size="24" transform="translate(1076.55 668)">2022/11/12</text><text font-family="DengXian,DengXian_MSFontService,sans-serif" font-weight="400" font-size="24" transform="translate(26.8975 584)">权值矩阵</text><rect x="340.625" y="561.625" width="43.7501" height="36.75" fill="#FFFFFF"/><path d="M334.5 555.5 390.5 555.5 384.375 561.625 340.625 561.625Z" fill="#FFFFFF" fill-rule="evenodd"/><path d="M334.5 604.5 340.625 598.375 384.375 598.375 390.5 604.5Z" fill="#CDCDCD" fill-rule="evenodd"/><path d="M334.5 555.5 340.625 561.625 340.625 598.375 334.5 604.5Z" fill="#FFFFFF" fill-rule="evenodd"/><path d="M390.5 555.5 390.5 604.5 384.375 598.375 384.375 561.625Z" fill="#999999" fill-rule="evenodd"/><path d="M334.5 555.5 390.5 555.5 390.5 604.5 334.5 604.5ZM340.625 561.625 384.375 561.625 384.375 598.375 340.625 598.375ZM334.5 555.5 340.625 561.625M334.5 604.5 340.625 598.375M390.5 555.5 384.375 561.625M390.5 604.5 384.375 598.375" stroke="#000000" stroke-width="1.33333" stroke-miterlimit="8" fill="none" fill-rule="evenodd"/><text font-family="DengXian,DengXian_MSFontService,sans-serif" font-weight="400" font-size="24" transform="translate(355.719 587)">1</text><rect x="522.625" y="561.625" width="42.75" height="36.75" fill="#FFFFFF"/><path d="M516.5 555.5 571.5 555.5 565.375 561.625 522.625 561.625Z" fill="#FFFFFF" fill-rule="evenodd"/><path d="M516.5 604.5 522.625 598.375 565.375 598.375 571.5 604.5Z" fill="#CDCDCD" fill-rule="evenodd"/><path d="M516.5 555.5 522.625 561.625 522.625 598.375 516.5 604.5Z" fill="#FFFFFF" fill-rule="evenodd"/><path d="M571.5 555.5 571.5 604.5 565.375 598.375 565.375 561.625Z" fill="#999999" fill-rule="evenodd"/><path d="M516.5 555.5 571.5 555.5 571.5 604.5 516.5 604.5ZM522.625 561.625 565.375 561.625 565.375 598.375 522.625 598.375ZM516.5 555.5 522.625 561.625M516.5 604.5 522.625 598.375M571.5 555.5 565.375 561.625M571.5 604.5 565.375 598.375" stroke="#000000" stroke-width="1.33333" stroke-miterlimit="8" fill="none" fill-rule="evenodd"/><text font-family="DengXian,DengXian_MSFontService,sans-serif" font-weight="400" font-size="24" transform="translate(537.169 587)">2</text><rect x="706.625" y="558.625" width="43.7501" height="36.75" fill="#FFFFFF"/><path d="M700.5 552.5 756.5 552.5 750.375 558.625 706.625 558.625Z" fill="#FFFFFF" fill-rule="evenodd"/><path d="M700.5 601.5 706.625 595.375 750.375 595.375 756.5 601.5Z" fill="#CDCDCD" fill-rule="evenodd"/><path d="M700.5 552.5 706.625 558.625 706.625 595.375 700.5 601.5Z" fill="#FFFFFF" fill-rule="evenodd"/><path d="M756.5 552.5 756.5 601.5 750.375 595.375 750.375 558.625Z" fill="#999999" fill-rule="evenodd"/><path d="M700.5 552.5 756.5 552.5 756.5 601.5 700.5 601.5ZM706.625 558.625 750.375 558.625 750.375 595.375 706.625 595.375ZM700.5 552.5 706.625 558.625M700.5 601.5 706.625 595.375M756.5 552.5 750.375 558.625M756.5 601.5 750.375 595.375" stroke="#000000" stroke-width="1.33333" stroke-miterlimit="8" fill="none" fill-rule="evenodd"/><text font-family="DengXian,DengXian_MSFontService,sans-serif" font-weight="400" font-size="24" transform="translate(721.819 584)">3</text><rect x="174.625" y="557.625" width="43.7501" height="36.75" fill="#FFFFFF"/><path d="M168.5 551.5 224.5 551.5 218.375 557.625 174.625 557.625Z" fill="#FFFFFF" fill-rule="evenodd"/><path d="M168.5 600.5 174.625 594.375 218.375 594.375 224.5 600.5Z" fill="#CDCDCD" fill-rule="evenodd"/><path d="M168.5 551.5 174.625 557.625 174.625 594.375 168.5 600.5Z" fill="#FFFFFF" fill-rule="evenodd"/><path d="M224.5 551.5 224.5 600.5 218.375 594.375 218.375 557.625Z" fill="#999999" fill-rule="evenodd"/><path d="M168.5 551.5 224.5 551.5 224.5 600.5 168.5 600.5ZM174.625 557.625 218.375 557.625 218.375 594.375 174.625 594.375ZM168.5 551.5 174.625 557.625M168.5 600.5 174.625 594.375M224.5 551.5 218.375 557.625M224.5 600.5 218.375 594.375" stroke="#000000" stroke-width="1.33333" stroke-miterlimit="8" fill="none" fill-rule="evenodd"/><text fill="#FFC000" font-family="DengXian,DengXian_MSFontService,sans-serif" font-weight="400" font-size="24" transform="translate(189.556 583)">0</text><path d="M70 517C60.335 517 52.5 515.694 52.5 514.083L52.5 378.417C52.5 376.806 44.665 375.5 35 375.5 44.665 375.5 52.5 374.194 52.5 372.583L52.5 236.917C52.5 235.306 60.335 234 70 234" stroke="#000000" stroke-width="2" stroke-miterlimit="8" fill="none" fill-rule="evenodd"/><text font-family="DengXian,DengXian_MSFontService,sans-serif" font-weight="400" font-size="24" transform="translate(11.1201 366)">入</text><text font-family="DengXian,DengXian_MSFontService,sans-serif" font-weight="400" font-size="24" transform="translate(11.1201 395)">力</text><path d="M1191 245C1199.01 245 1205.5 246.082 1205.5 247.417L1205.5 372.083C1205.5 373.418 1211.99 374.5 1220 374.5 1211.99 374.5 1205.5 375.582 1205.5 376.917L1205.5 501.583C1205.5 502.918 1199.01 504 1191 504" stroke="#000000" stroke-width="2" stroke-miterlimit="8" fill="none" fill-rule="evenodd"/><text font-family="DengXian,DengXian_MSFontService,sans-serif" font-weight="400" font-size="24" transform="translate(1225.51 367)">出</text><text font-family="DengXian,DengXian_MSFontService,sans-serif" font-weight="400" font-size="24" transform="translate(1225.51 396)">力</text><path d="M166.334 610C160.074 610 155 604.926 155 598.667L155 553.333C155 547.074 160.074 542 166.334 542M223.666 542C229.926 542 235 547.074 235 553.333L235 598.667C235 604.926 229.926 610 223.666 610" stroke="#000000" stroke-width="2" stroke-miterlimit="8" fill="none" fill-rule="evenodd"/><path d="M330.667 609C325.328 609 321 604.672 321 599.333L321 560.667C321 555.328 325.328 551 330.667 551M391.333 551C396.672 551 401 555.328 401 560.667L401 599.333C401 604.672 396.672 609 391.333 609" stroke="#000000" stroke-width="2" stroke-miterlimit="8" fill="none" fill-rule="evenodd"/><path d="M511.167 610C505.552 610 501 605.448 501 599.833L501 559.167C501 553.552 505.552 549 511.167 549M574.833 549C580.448 549 585 553.552 585 559.167L585 599.833C585 605.448 580.448 610 574.833 610" stroke="#000000" stroke-width="2" stroke-miterlimit="8" fill="none" fill-rule="evenodd"/><path d="M695.167 610C689.552 610 685 605.448 685 599.833L685 559.167C685 553.552 689.552 549 695.167 549M758.833 549C764.448 549 769 553.552 769 559.167L769 599.833C769 605.448 764.448 610 758.833 610" stroke="#000000" stroke-width="2" stroke-miterlimit="8" fill="none" fill-rule="evenodd"/><rect x="868.625" y="557.625" width="43.7501" height="36.75" fill="#FFFFFF"/><path d="M862.5 551.5 918.5 551.5 912.375 557.625 868.625 557.625Z" fill="#FFFFFF" fill-rule="evenodd"/><path d="M862.5 600.5 868.625 594.375 912.375 594.375 918.5 600.5Z" fill="#CDCDCD" fill-rule="evenodd"/><path d="M862.5 551.5 868.625 557.625 868.625 594.375 862.5 600.5Z" fill="#FFFFFF" fill-rule="evenodd"/><path d="M918.5 551.5 918.5 600.5 912.375 594.375 912.375 557.625Z" fill="#999999" fill-rule="evenodd"/><path d="M862.5 551.5 918.5 551.5 918.5 600.5 862.5 600.5ZM868.625 557.625 912.375 557.625 912.375 594.375 868.625 594.375ZM862.5 551.5 868.625 557.625M862.5 600.5 868.625 594.375M918.5 551.5 912.375 557.625M918.5 600.5 912.375 594.375" stroke="#000000" stroke-width="1.33333" stroke-miterlimit="8" fill="none" fill-rule="evenodd"/><text font-family="DengXian,DengXian_MSFontService,sans-serif" font-weight="400" font-size="24" transform="translate(883.561 583)">4</text><path d="M860.667 610C854.776 610 850 605.224 850 599.333L850 556.667C850 550.776 854.776 546 860.667 546M921.333 546C927.224 546 932 550.776 932 556.667L932 599.333C932 605.224 927.224 610 921.333 610" stroke="#000000" stroke-width="2" stroke-miterlimit="8" fill="none" fill-rule="evenodd"/><rect x="1032.62" y="562.625" width="43.75" height="36.75" fill="#FFFFFF"/><path d="M1026.5 556.5 1082.5 556.5 1076.38 562.625 1032.62 562.625Z" fill="#FFFFFF" fill-rule="evenodd"/><path d="M1026.5 605.5 1032.62 599.375 1076.38 599.375 1082.5 605.5Z" fill="#CDCDCD" fill-rule="evenodd"/><path d="M1026.5 556.5 1032.62 562.625 1032.62 599.375 1026.5 605.5Z" fill="#FFFFFF" fill-rule="evenodd"/><path d="M1082.5 556.5 1082.5 605.5 1076.38 599.375 1076.38 562.625Z" fill="#999999" fill-rule="evenodd"/><path d="M1026.5 556.5 1082.5 556.5 1082.5 605.5 1026.5 605.5ZM1032.62 562.625 1076.38 562.625 1076.38 599.375 1032.62 599.375ZM1026.5 556.5 1032.62 562.625M1026.5 605.5 1032.62 599.375M1082.5 556.5 1076.38 562.625M1082.5 605.5 1076.38 599.375" stroke="#000000" stroke-width="1.33333" stroke-miterlimit="8" fill="none" fill-rule="evenodd"/><text fill="#FFC000" font-family="DengXian,DengXian_MSFontService,sans-serif" font-weight="400" font-size="24" transform="translate(1048.05 588)">5</text><path d="M1025.67 615C1019.78 615 1015 610.224 1015 604.333L1015 561.667C1015 555.776 1019.78 551 1025.67 551M1086.33 551C1092.22 551 1097 555.776 1097 561.667L1097 604.333C1097 610.224 1092.22 615 1086.33 615" stroke="#000000" stroke-width="2" stroke-miterlimit="8" fill="none" fill-rule="evenodd"/></g></svg>