<?xml version="1.0" encoding="UTF-8" standalone="no"?>
<!DOCTYPE svg PUBLIC "-//W3C//DTD SVG 1.1//EN" "http://www.w3.org/Graphics/SVG/1.1/DTD/svg11.dtd">
<svg width="100%" height="100%" viewBox="0 0 192 192" version="1.1" xmlns="http://www.w3.org/2000/svg" xmlns:xlink="http://www.w3.org/1999/xlink" xml:space="preserve" xmlns:serif="http://www.serif.com/" style="fill-rule:evenodd;clip-rule:evenodd;stroke-linejoin:round;stroke-miterlimit:2;">
    <path d="M144,188L144,192L140,192L140,188L144,188ZM144,188L144,184L148,184L148,188L144,188ZM140,168L144,168L144,172L140,172L140,168ZM24,188L24,192L20,192L20,188L24,188ZM156,176L156,192L152,192L152,176L156,176ZM152,176L148,176L148,172L152,172L152,176ZM140,172L140,184L136,184L136,192L120,192L120,188L124,188L124,184L128,184L128,176L132,176L132,172L140,172ZM112,180L116,180L116,184L112,184L112,180ZM16,104L0,104L0,100L8,100L8,96L12,96L12,100L16,100L16,96L12,96L12,92L16,92L16,88L20,88L20,92L28,92L28,96L20,96L20,120L24,120L24,124L20,124L20,132L24,132L24,140L20,140L20,144L16,144L16,124L12,124L12,120L16,120L16,104ZM20,88L20,84L24,84L24,88L20,88ZM24,84L24,80L20,80L20,72L24,72L24,36L28,36L28,28L36,28L36,32L32,32L32,52L36,52L36,60L40,60L40,64L36,64L36,68L32,68L32,80L28,80L28,84L24,84ZM36,28L36,24L40,24L40,28L36,28ZM40,24L40,20L56,20L56,24L52,24L52,28L48,28L48,24L40,24ZM56,20L56,16L72,16L72,12L80,12L80,16L88,16L88,20L56,20ZM80,12L80,8L124,8L124,12L80,12ZM124,12L136,12L136,16L124,16L124,12ZM136,16L148,16L148,20L136,20L136,16ZM148,20L156,20L156,24L148,24L148,20ZM156,24L160,24L160,32L156,32L156,24ZM160,32L164,32L164,36L160,36L160,32ZM164,36L168,36L168,44L164,44L164,36ZM168,44L172,44L172,52L168,52L168,44ZM172,52L176,52L176,68L180,68L180,76L176,76L176,84L172,84L172,72L164,72L164,76L168,76L168,84L172,84L172,96L168,96L168,104L172,104L172,100L184,100L184,84L188,84L188,96L192,96L192,104L188,104L188,108L192,108L192,124L188,124L188,128L184,128L184,132L180,132L180,136L176,136L176,140L168,140L168,144L172,144L172,148L176,148L176,152L180,152L180,156L172,156L172,168L168,168L168,164L160,164L160,176L156,176L156,164L148,164L148,156L144,156L144,152L148,152L148,148L136,148L136,144L132,144L132,128L136,128L136,124L140,124L140,120L144,120L144,116L140,116L140,112L132,112L132,92L128,92L128,84L132,84L132,88L136,88L136,96L144,96L144,89L140,89L140,76L144,76L144,40L136,40L136,32L140,32L140,36L152,36L152,40L148,40L148,76L152,76L152,68L172,68L172,64L168,64L168,56L172,56L172,52ZM180,76L184,76L184,84L180,84L180,76ZM172,168L176,168L176,176L180,176L180,184L176,184L176,180L172,180L172,168ZM180,184L184,184L184,188L180,188L180,184ZM180,188L180,192L176,192L176,188L180,188ZM176,188L172,188L172,192L168,192L168,188L164,188L164,168L168,168L168,184L176,184L176,188ZM144,156L144,164L140,164L140,168L136,168L136,164L132,164L132,160L136,160L136,156L144,156ZM132,164L132,168L124,168L124,172L120,172L120,164L124,164L124,156L128,156L128,164L132,164ZM120,164L116,164L116,156L108,156L108,152L116,152L116,148L104,148L104,144L100,144L100,136L96,136L96,128L104,128L104,124L100,124L100,120L96,120L96,124L92,124L92,128L88,128L88,140L84,140L84,132L80,132L80,128L84,128L84,112L88,112L88,120L92,120L92,116L96,116L96,112L92,112L92,108L100,108L100,96L92,96L92,84L96,84L96,64L100,64L100,60L104,60L104,64L108,64L108,68L100,68L100,88L96,88L96,92L104,92L104,76L108,76L108,96L116,96L116,64L112,64L112,60L104,60L104,56L108,56L108,44L112,44L112,52L116,52L116,60L124,60L124,64L128,64L128,68L120,68L120,76L124,76L124,80L120,80L120,104L124,104L124,108L120,108L120,116L116,116L116,104L112,104L112,100L108,100L108,104L104,104L104,112L108,112L108,104L112,104L112,116L116,116L116,120L120,120L120,116L124,116L124,124L128,124L128,140L124,140L124,136L116,136L116,140L112,140L112,144L120,144L120,140L124,140L124,152L120,152L120,164ZM116,164L116,172L112,172L112,180L108,180L108,192L104,192L104,188L100,188L100,184L104,184L104,180L100,180L100,184L96,184L96,188L92,188L92,184L88,184L88,188L76,188L76,192L48,192L48,188L72,188L72,184L76,184L76,180L72,180L72,184L68,184L68,176L60,176L60,184L44,184L44,180L48,180L48,176L56,176L56,172L48,172L48,176L44,176L44,180L36,180L36,184L28,184L28,188L24,188L24,176L20,176L20,144L24,144L24,140L28,140L28,144L32,144L32,124L36,124L36,108L40,108L40,100L44,100L44,80L48,80L48,84L52,84L52,80L56,80L56,76L60,76L60,68L64,68L64,84L68,84L68,88L72,88L72,84L68,84L68,76L72,76L72,64L60,64L60,60L76,60L76,56L80,56L80,64L76,64L76,112L80,112L80,128L76,128L76,116L72,116L72,92L68,92L68,100L64,100L64,108L68,108L68,132L64,132L64,136L56,136L56,140L48,140L48,136L52,136L52,128L48,128L48,124L56,124L56,120L48,120L48,116L52,116L52,112L48,112L48,116L44,116L44,140L48,140L48,144L44,144L44,156L48,156L48,164L56,164L56,168L64,168L64,172L72,172L72,176L96,176L96,172L108,172L108,168L112,168L112,164L116,164ZM32,176L40,176L40,172L44,172L44,168L40,168L40,152L32,152L32,148L24,148L24,156L28,156L28,160L24,160L24,164L28,164L28,172L32,172L32,176ZM28,92L28,88L32,88L32,92L28,92ZM24,120L24,112L28,112L28,120L24,120ZM28,112L28,108L32,108L32,112L28,112ZM28,108L24,108L24,104L28,104L28,108ZM28,104L28,100L32,100L32,104L28,104ZM32,100L32,96L36,96L36,100L32,100ZM36,96L36,92L40,92L40,96L36,96ZM24,124L28,124L28,128L24,128L24,124ZM48,80L48,72L52,72L52,80L48,80ZM48,72L40,72L40,68L48,68L48,72ZM40,72L40,80L36,80L36,72L40,72ZM48,68L48,64L56,64L56,72L52,72L52,68L48,68ZM80,56L80,52L72,52L72,56L68,56L68,52L64,52L64,56L56,56L56,60L40,60L40,56L48,56L48,52L60,52L60,48L68,48L68,44L72,44L72,40L76,40L76,36L80,36L80,44L76,44L76,48L92,48L92,52L84,52L84,56L80,56ZM36,52L36,44L40,44L40,52L36,52ZM40,44L40,32L44,32L44,44L40,44ZM44,32L44,28L48,28L48,32L44,32ZM56,24L60,24L60,32L56,32L56,24ZM60,32L64,32L64,40L60,40L60,32ZM64,40L68,40L68,44L64,44L64,40ZM80,36L80,32L84,32L84,36L80,36ZM84,32L84,28L88,28L88,32L84,32ZM88,28L88,20L96,20L96,16L108,16L108,20L104,20L104,32L100,32L100,24L92,24L92,28L88,28ZM108,20L120,20L120,24L108,24L108,20ZM120,24L128,24L128,28L120,28L120,24ZM128,28L136,28L136,32L128,32L128,28ZM152,40L156,40L156,44L152,44L152,40ZM156,44L160,44L160,48L156,48L156,44ZM160,48L164,48L164,52L160,52L160,48ZM164,52L168,52L168,56L164,56L164,52ZM132,112L132,124L128,124L128,116L124,116L124,108L128,108L128,112L132,112ZM128,156L128,152L132,152L132,156L128,156ZM140,76L136,76L136,80L132,80L132,76L128,76L128,68L136,68L136,72L140,72L140,76ZM124,80L128,80L128,84L124,84L124,80ZM36,128L36,148L40,148L40,128L36,128ZM48,92L48,108L52,108L52,104L60,104L60,84L56,84L56,88L52,88L52,92L48,92ZM136,40L136,44L128,44L128,40L136,40ZM128,44L128,48L120,48L120,44L128,44ZM120,48L120,52L116,52L116,48L120,48ZM80,112L80,100L88,100L88,96L92,96L92,104L88,104L88,108L84,108L84,112L80,112ZM88,96L84,96L84,92L88,92L88,96ZM104,56L92,56L92,52L104,52L104,56ZM92,56L92,60L88,60L88,56L92,56ZM88,60L88,64L84,64L84,60L88,60ZM88,64L92,64L92,68L88,68L88,64ZM88,68L88,72L84,72L84,68L88,68ZM88,72L92,72L92,76L88,76L88,72ZM84,72L84,80L80,80L80,72L84,72ZM84,80L88,80L88,84L84,84L84,80ZM84,84L84,88L80,88L80,84L84,84ZM108,44L104,44L104,32L108,32L108,44ZM108,68L112,68L112,76L108,76L108,68ZM164,188L164,192L160,192L160,188L164,188ZM184,188L188,188L188,192L184,192L184,188ZM180,152L180,148L188,148L188,152L180,152ZM148,176L148,180L144,180L144,176L148,176ZM84,160L72,160L72,152L76,152L76,156L84,156L84,160Z"/>
</svg>
